PathFileType	4	(X/Y/Z)	D:\MotionData\NordSprintingStudy\BertecTesting2023-09-14\Generated_files\Trimmed_running_0600000001-Feet.trc
DataRate	CameraRate	NumFrames	NumMarkers	Units	OrigDataRate	OrigDataStartFrame	OrigNumFrames
200.00	200.00	      19	10	mm	200.00	238	      1900
Frame#	Time	r_calc			r_toe			r_meta			r_ankle			r_mankle			l_calc			l_toe			l_meta			l_ankle			l_mankle			
		X1	Y1	Z1	X2	Y2	Z2	X3	Y3	Z3	X4	Y4	Z4	X5	Y5	Z5	X6	Y6	Z6	X7	Y7	Z7	X8	Y8	Z8	X9	Y9	Z9	X10	Y10	Z10	

238	1.185	1187.15759	281.00229	143.01494	1395.87695	223.90948	148.61749	1347.98022	187.13826	122.39591	1241.08044	211.07704	187.98000	1270.20605	292.08472	204.90068	341.07285	369.20822	482.96732	376.49103	375.10452	271.66452	346.61203	426.12732	314.02664	394.77036	422.22168	433.37616	411.96072	342.20877	411.06757	
239	1.190	1207.17053	283.66885	131.51323	1415.48511	228.06502	147.81537	1370.19202	192.33998	117.70506	1258.41785	213.36720	177.00354	1286.35144	294.09171	197.13789	342.62756	369.93707	510.84451	364.61255	376.23712	298.11685	338.95538	429.29813	341.05917	392.77072	422.46091	457.00833	408.95337	343.91260	434.64676	
240	1.195	1224.66882	286.84015	121.87252	1431.72412	232.38174	147.65762	1388.46643	196.69606	113.41318	1273.84521	215.57787	167.75507	1300.33936	294.68539	190.75668	347.14728	371.44556	538.54401	355.11337	377.79355	325.11609	331.89474	429.81903	370.33557	394.37146	423.32303	482.20590	408.08719	344.75043	458.27631	
241	1.200	1239.39478	288.30731	113.65868	1446.42810	237.05368	149.01404	1404.08118	200.87468	110.19033	1287.69250	217.80931	160.87386	1311.41638	297.40018	186.68683	353.96820	372.14270	566.42963	348.45880	380.01971	352.39725	328.05325	431.49548	399.33279	396.78812	425.62006	507.29883	409.34354	345.76321	481.79321	
242	1.205	1251.20288	290.21707	107.60341	1457.28284	241.65488	149.07620	1418.38708	206.76761	108.32741	1298.38306	219.77768	155.45660	1320.26611	298.85620	183.48756	363.12909	372.81216	592.74402	344.46408	381.72281	379.48355	327.02170	433.25522	428.05286	402.05624	426.85303	531.54980	413.24536	346.75876	504.79913	
243	1.210	1259.71155	292.58057	102.98944	1464.85156	246.07359	148.96034	1427.80823	211.65662	105.90961	1305.36877	222.29831	150.37558	1326.48108	300.29105	181.27440	374.56754	373.85260	617.96625	342.72638	385.12201	405.81689	328.39221	435.52682	456.07178	409.51187	427.71768	554.76788	418.83572	347.46298	527.02069	
244	1.215	1264.93518	296.47757	99.35356	1468.48828	249.34712	147.63126	1432.38086	215.91733	103.16070	1309.43506	222.78300	147.06992	1330.31506	300.20755	178.62798	387.64334	374.18018	642.14716	344.10535	385.25967	432.42221	332.68228	437.04526	483.23495	418.60934	430.52472	579.85345	426.28427	348.39108	548.45416	
245	1.220	1266.79163	298.58624	96.37829	1469.45947	251.82724	145.57101	1434.17651	219.42340	99.67846	1310.34766	224.46167	142.91748	1331.21460	301.48373	176.08423	402.21469	374.44946	664.65131	347.43585	388.04327	457.65265	339.38678	438.17691	510.49210	430.13168	429.18246	597.74969	435.69418	348.93433	568.70160	
246	1.225	1265.29517	301.94608	93.58289	1468.31213	253.85014	143.05934	1433.24292	222.49353	95.37566	1308.33289	226.12779	138.84283	1330.15320	303.01428	174.22948	418.34412	374.44675	685.80798	353.10101	389.22336	481.78897	347.69287	439.79309	535.59314	444.05081	428.19916	616.61298	446.66257	350.04532	587.70386	
247	1.230	1260.51575	302.66086	90.79103	1464.05652	254.95483	138.68439	1429.77319	224.64673	90.45899	1303.07983	227.89467	134.55223	1324.91760	304.01907	169.93744	435.95267	373.90292	705.26794	362.18207	395.07764	506.56445	358.29797	441.02863	559.50452	457.40662	429.94708	636.95447	459.29944	350.78976	605.47180	
248	1.235	1252.78638	305.26471	87.32687	1456.32617	255.41351	132.02576	1421.52026	226.11453	84.25705	1295.10254	229.45137	130.18491	1318.27234	305.73102	166.05858	455.05704	373.27475	723.08075	370.95749	394.70996	526.10486	370.85184	442.72623	581.25336	470.07645	432.83914	655.41870	473.34973	350.92255	621.61731	
249	1.240	1242.32825	307.29535	83.11668	1446.76563	255.95528	124.50291	1410.37537	226.77936	77.26300	1284.76233	231.25572	125.54337	1308.55371	308.00491	160.21368	475.24655	372.65567	738.89294	382.67276	396.56580	545.64874	384.70349	443.47910	602.35529	489.80081	430.67902	669.62164	488.94214	351.42087	636.37756	
250	1.245	1229.43628	309.71249	78.62518	1434.36963	256.44876	115.00418	1396.43408	227.50296	69.53095	1272.10400	233.35855	120.61814	1297.59204	309.29996	154.70412	496.52405	372.42032	753.03711	395.53043	398.08179	563.30609	400.12814	444.55743	620.56775	507.65338	431.28680	683.50153	505.84164	351.67038	649.25391	
251	1.250	1213.95459	311.10999	73.99490	1419.53650	257.09006	104.73917	1379.99023	227.95197	60.74835	1257.27979	235.12283	115.37164	1283.97217	311.28131	148.03961	518.26373	371.69128	764.58447	410.38846	398.72742	579.87939	417.50235	444.85800	638.63611	526.67804	431.77835	694.63586	523.71417	352.92947	660.73126	
252	1.255	1196.18896	312.78214	69.23875	1402.66174	257.91577	93.57996	1361.44812	228.73370	51.43999	1240.60352	236.61609	109.85333	1268.31470	314.47708	141.11905	540.79938	371.94131	774.86676	426.42978	399.88031	594.17084	435.63541	446.01193	651.46320	546.80176	432.26959	704.45593	542.48920	353.10217	670.45752	
253	1.260	1176.48730	314.03406	64.48441	1384.17078	259.57043	81.77299	1341.30676	230.07423	41.42765	1222.74792	238.59448	104.07414	1251.43604	315.00760	134.24550	563.64056	372.53250	783.21429	443.25806	400.68860	606.20581	454.91867	447.00095	663.77368	567.39142	432.91925	712.50903	561.88605	353.92450	678.68512	
254	1.265	1153.59302	316.40735	62.12148	1364.05481	262.73190	71.69038	1317.58337	227.59116	39.63224	1203.04541	240.17776	98.35733	1232.42529	317.59000	126.95329	586.40869	373.34470	790.05286	461.25931	400.39764	616.12292	474.44260	447.68826	673.37701	588.11011	433.96869	718.69086	581.74579	354.18066	685.10620	
255	1.270	1128.07214	316.41422	59.98763	1342.01331	269.69000	64.75075	1293.67273	231.58099	41.88704	1182.94849	244.77116	94.15657	1208.93018	324.33435	121.75776	608.95807	374.68027	794.96173	479.87961	402.40717	623.52203	494.31644	448.22961	680.36053	596.75867	439.54843	731.56714	602.00000	355.05145	690.02771	
256	1.275	1099.56665	320.01538	55.07530	1314.18066	279.18991	59.46290	1266.50537	236.20839	43.14235	1160.48145	252.38449	93.09325	1180.87329	332.69513	117.77686	631.23724	375.95526	798.06689	498.97009	403.09409	628.93030	513.99561	448.69946	684.91858	630.08069	436.18817	725.80450	622.47382	355.63113	693.21991	
